<?xml version="1.0" encoding="UTF-8"?>
<svg xmlns="http://www.w3.org/2000/svg" viewBox="0 0 1200 630" width="1200" height="630">
  <defs>
    <linearGradient id="g50067" x1="83.4565303179429%" y1="12.842758726130285%" x2="16.543469682057086%" y2="87.15724127386972%">
      <stop offset="0%" stop-color="#D97706"/>
      <stop offset="100%" stop-color="#B45309"/>
    </linearGradient>
  </defs>
  <rect width="1200" height="630" fill="url(#g50067)"/>
  <circle cx="717.4886975903064" cy="331.6958349989727" r="8" fill="rgba(255,255,255,0.2)"/><ellipse cx="717.4886975903064" cy="331.6958349989727" rx="107.26000908762217" ry="45.02679883968085" fill="none" stroke="rgba(255,255,255,0.12)" stroke-width="1.5" transform="rotate(12.522398857399821 717.4886975903064 331.6958349989727)"/><ellipse cx="717.4886975903064" cy="331.6958349989727" rx="103.36244711652398" ry="37.70383067894727" fill="none" stroke="rgba(255,255,255,0.12)" stroke-width="1.5" transform="rotate(68.79640673752874 717.4886975903064 331.6958349989727)"/><ellipse cx="717.4886975903064" cy="331.6958349989727" rx="93.58100895769894" ry="42.31664733029902" fill="none" stroke="rgba(255,255,255,0.12)" stroke-width="1.5" transform="rotate(148.57677596155554 717.4886975903064 331.6958349989727)"/><circle cx="330.09153807524376" cy="80" r="3" fill="rgba(255,255,255,0.15)"/><circle cx="272.8588343390883" cy="80" r="3" fill="rgba(255,255,255,0.10)"/><circle cx="282.1328768058597" cy="105" r="3" fill="rgba(255,255,255,0.15)"/><circle cx="309.6684043424216" cy="105" r="3" fill="rgba(255,255,255,0.10)"/><line x1="282.1328768058597" y1="105" x2="309.6684043424216" y2="105" stroke="rgba(255,255,255,0.08)" stroke-width="1"/><circle cx="280.76836890827263" cy="130" r="3" fill="rgba(255,255,255,0.15)"/><circle cx="333.74523556397594" cy="130" r="3" fill="rgba(255,255,255,0.10)"/><circle cx="261.2588333334397" cy="155" r="3" fill="rgba(255,255,255,0.15)"/><circle cx="337.6744586483692" cy="155" r="3" fill="rgba(255,255,255,0.10)"/><line x1="261.2588333334397" y1="155" x2="337.6744586483692" y2="155" stroke="rgba(255,255,255,0.08)" stroke-width="1"/><circle cx="259.07361983405195" cy="180" r="3" fill="rgba(255,255,255,0.15)"/><circle cx="338.2730402183007" cy="180" r="3" fill="rgba(255,255,255,0.10)"/><circle cx="273.2104895243427" cy="205" r="3" fill="rgba(255,255,255,0.15)"/><circle cx="314.4351707676913" cy="205" r="3" fill="rgba(255,255,255,0.10)"/><line x1="273.2104895243427" y1="205" x2="314.4351707676913" y2="205" stroke="rgba(255,255,255,0.08)" stroke-width="1"/><circle cx="311.34075632017016" cy="230" r="3" fill="rgba(255,255,255,0.15)"/><circle cx="316.7689458194236" cy="230" r="3" fill="rgba(255,255,255,0.10)"/><circle cx="304.55839577429725" cy="255" r="3" fill="rgba(255,255,255,0.15)"/><circle cx="287.73504489802633" cy="255" r="3" fill="rgba(255,255,255,0.10)"/><line x1="304.55839577429725" y1="255" x2="287.73504489802633" y2="255" stroke="rgba(255,255,255,0.08)" stroke-width="1"/><circle cx="329.72701553300413" cy="280" r="3" fill="rgba(255,255,255,0.15)"/><circle cx="270.53235855840995" cy="280" r="3" fill="rgba(255,255,255,0.10)"/><circle cx="338.32060732846077" cy="305" r="3" fill="rgba(255,255,255,0.15)"/><circle cx="267.8730393884259" cy="305" r="3" fill="rgba(255,255,255,0.10)"/><line x1="338.32060732846077" y1="305" x2="267.8730393884259" y2="305" stroke="rgba(255,255,255,0.08)" stroke-width="1"/><circle cx="325.6196959937977" cy="330" r="3" fill="rgba(255,255,255,0.15)"/><circle cx="276.9874097459839" cy="330" r="3" fill="rgba(255,255,255,0.10)"/><circle cx="288.8929656749539" cy="355" r="3" fill="rgba(255,255,255,0.15)"/><circle cx="302.6952551617197" cy="355" r="3" fill="rgba(255,255,255,0.10)"/><line x1="288.8929656749539" y1="355" x2="302.6952551617197" y2="355" stroke="rgba(255,255,255,0.08)" stroke-width="1"/><circle cx="266.14955862036555" cy="380" r="3" fill="rgba(255,255,255,0.15)"/><circle cx="310.4770515358772" cy="380" r="3" fill="rgba(255,255,255,0.10)"/><circle cx="259.6305952115936" cy="405" r="3" fill="rgba(255,255,255,0.15)"/><circle cx="330.3566118636261" cy="405" r="3" fill="rgba(255,255,255,0.10)"/><line x1="259.6305952115936" y1="405" x2="330.3566118636261" y2="405" stroke="rgba(255,255,255,0.08)" stroke-width="1"/><circle cx="260.4527824076638" cy="430" r="3" fill="rgba(255,255,255,0.15)"/><circle cx="337.93423655569956" cy="430" r="3" fill="rgba(255,255,255,0.10)"/><circle cx="265.748789754267" cy="455" r="3" fill="rgba(255,255,255,0.15)"/><circle cx="325.873113420474" cy="455" r="3" fill="rgba(255,255,255,0.10)"/><line x1="265.748789754267" y1="455" x2="325.873113420474" y2="455" stroke="rgba(255,255,255,0.08)" stroke-width="1"/><circle cx="279.6800136384097" cy="480" r="3" fill="rgba(255,255,255,0.15)"/><circle cx="294.02783594741516" cy="480" r="3" fill="rgba(255,255,255,0.10)"/><circle cx="321.8778016021687" cy="505" r="3" fill="rgba(255,255,255,0.15)"/><circle cx="290.17336928641197" cy="505" r="3" fill="rgba(255,255,255,0.10)"/><line x1="321.8778016021687" y1="505" x2="290.17336928641197" y2="505" stroke="rgba(255,255,255,0.08)" stroke-width="1"/><circle cx="327.506880720264" cy="530" r="3" fill="rgba(255,255,255,0.15)"/><circle cx="258.9184716576323" cy="530" r="3" fill="rgba(255,255,255,0.10)"/><path d="M 844.1743627563119 294.49233654886484 L 844.1743627563119 354.49233654886484 L 814.1743627563119 434.49233654886484 A 5 5 0 0 0 819.1743627563119 444.49233654886484 L 899.1743627563119 444.49233654886484 A 5 5 0 0 0 904.1743627563119 434.49233654886484 L 874.1743627563119 354.49233654886484 L 874.1743627563119 294.49233654886484 Z" fill="rgba(255,255,255,0.06)" stroke="rgba(255,255,255,0.15)" stroke-width="2"/><polygon points="1037.6367173340725,210.6436000362737 1037.6367173340725,249.47441783093382 1004.0082426741719,268.88982672826387 970.3797680142715,249.47441783093382 970.3797680142715,210.6436000362737 1004.0082426741719,191.22819113894366" fill="none" stroke="rgba(255,255,255,0.1165432602353394)" stroke-width="1.5"/><polygon points="1108.2512165421847,158.58091803675052 1108.2512165421847,198.3366094302619 1073.8217778503895,218.21445512701757 1039.3923391585943,198.3366094302619 1039.3923391585943,158.58091803675052 1073.8217778503895,138.70307233999483" fill="none" stroke="rgba(255,255,255,0.15122534178197383)" stroke-width="1.5"/><polygon points="1088.988903092189,152.33873149380088 1088.988903092189,179.98767089098692 1065.0442191865295,193.81214058957994 1041.09953528087,179.98767089098692 1041.09953528087,152.33873149380088 1065.0442191865295,138.51426179520786" fill="none" stroke="rgba(255,255,255,0.14503640024457126)" stroke-width="1.5"/>
  <circle cx="460.1918488740921" cy="335.3454092424363" r="2.2933165985159576" fill="rgba(255,255,255,0.06945516210515051)"/><circle cx="1002.1099895238876" cy="229.5257101720199" r="1.9278239998966455" fill="rgba(255,255,255,0.07610437348019332)"/><circle cx="557.4890951626003" cy="18.21255125105381" r="2.813379654660821" fill="rgba(255,255,255,0.0734460568940267)"/><circle cx="115.28391418978572" cy="176.44614057149738" r="2.205206522718072" fill="rgba(255,255,255,0.03733515836764127)"/><circle cx="1116.4410224184394" cy="568.8696332741529" r="1.2132297372445464" fill="rgba(255,255,255,0.07974819243652746)"/><circle cx="1074.6828876435757" cy="541.1612658505328" r="1.387491466011852" fill="rgba(255,255,255,0.046645174729637806)"/><circle cx="936.4772368222475" cy="364.18445602990687" r="2.6329836435616016" fill="rgba(255,255,255,0.05714216862805188)"/><circle cx="114.76729838177562" cy="491.6522628860548" r="2.8642355632036924" fill="rgba(255,255,255,0.06803726239129901)"/><circle cx="452.6469312608242" cy="131.6295447642915" r="1.2740858104079962" fill="rgba(255,255,255,0.0702413906995207)"/><circle cx="415.1779130101204" cy="11.430608136579394" r="1.1438855407759547" fill="rgba(255,255,255,0.0650473984493874)"/><circle cx="90.06021609529853" cy="44.076952720060945" r="2.0540072843432426" fill="rgba(255,255,255,0.06464142485754565)"/><circle cx="1096.6878301464021" cy="170.42329779127613" r="1.1744551644660532" fill="rgba(255,255,255,0.07548598178662361)"/><circle cx="684.833359066397" cy="201.68858824996278" r="1.0373885054141283" fill="rgba(255,255,255,0.034086176527198406)"/><circle cx="237.2102128341794" cy="211.6604093508795" r="2.9625561735592782" fill="rgba(255,255,255,0.049577102700714026)"/><circle cx="1058.7638678960502" cy="33.013528981246054" r="1.742882049176842" fill="rgba(255,255,255,0.0739071397529915)"/><circle cx="618.2728841900826" cy="329.5682750805281" r="2.001171349082142" fill="rgba(255,255,255,0.03716406010324135)"/><circle cx="480.3948068059981" cy="11.47797056240961" r="2.5543487300164998" fill="rgba(255,255,255,0.05528274321230128)"/><circle cx="57.28919394314289" cy="8.75243442133069" r="2.465778084937483" fill="rgba(255,255,255,0.07592806892469525)"/><circle cx="1064.0232497826219" cy="232.95796031830832" r="2.6982439779676497" fill="rgba(255,255,255,0.06587219784967602)"/><circle cx="177.67259879037738" cy="414.49269144097343" r="2.1444148565642536" fill="rgba(255,255,255,0.0731575721129775)"/>
  <text x="600" y="335" font-family="system-ui, -apple-system, 'Segoe UI', sans-serif" font-size="68" font-weight="700" fill="rgba(0,0,0,0.15)" text-anchor="middle" letter-spacing="1">AP Physics 1</text>
  <text x="600" y="332" font-family="system-ui, -apple-system, 'Segoe UI', sans-serif" font-size="68" font-weight="700" fill="white" text-anchor="middle" letter-spacing="1">AP Physics 1</text>
  <g transform="translate(1140, 575)">
    <rect x="0" y="0" width="40" height="40" rx="8" fill="rgba(255,255,255,0.15)"/>
    <text x="20" y="29" font-family="sans-serif" font-weight="bold" font-size="24" fill="rgba(255,255,255,0.6)" text-anchor="middle">K</text>
  </g>
</svg>